<svg width="63.401" height="81.257" fill="#4A4A46" viewBox="0 0 63.401 81.257" xmlns="http://www.w3.org/2000/svg">
    <g id="svgGroup" stroke-linecap="round" fill-rule="evenodd" font-size="9pt" fill="#4A4A46">
        <path d="M 17.612 50.873 A 12.659 12.659 0 0 0 23.306 48.757 C 23.506 47.057 22.906 45.457 22.206 43.957 C 17.906 33.857 14.906 27.157 7.506 18.357 A 7.296 7.296 0 0 0 5.225 16.346 A 7.891 7.891 0 0 0 3.506 15.657 C 2.506 15.357 1.606 14.757 0.806 14.157 A 2.033 2.033 0 0 1 0.744 14.119 C -0.148 13.555 -0.203 12.527 0.394 11.83 A 1.947 1.947 0 0 1 1.006 11.357 A 6.802 6.802 0 0 0 1.606 11.112 C 2.006 10.935 2.406 10.757 2.806 10.757 A 155.165 155.165 0 0 1 6.806 10.344 A 47.094 47.094 0 0 1 10.806 10.157 C 12.206 10.157 13.431 10.407 14.544 10.894 A 10.017 10.017 0 0 1 17.606 13.057 C 23.601 19.399 26.35 25.514 29.132 32.911 A 446.042 446.042 0 0 1 30.406 36.357 C 30.869 37.374 32.871 38.392 34.356 38.381 A 2.815 2.815 0 0 0 34.706 38.357 C 35.106 38.357 35.506 37.957 35.606 37.657 C 35.806 37.157 35.906 36.557 35.706 36.057 A 5.719 5.719 0 0 1 35.489 35.448 C 34.997 33.771 35.392 32.174 36.106 30.657 C 38.606 25.457 41.106 20.157 43.806 14.957 C 46.206 10.257 48.606 5.557 51.206 0.957 A 1.092 1.092 0 0 1 51.278 0.834 C 51.651 0.282 52.565 -0.046 53.399 0.005 A 2.294 2.294 0 0 1 54.106 0.157 C 56.706 1.057 59.206 2.257 61.406 3.857 A 6.939 6.939 0 0 1 61.618 4.017 C 63.631 5.602 63.957 7.73 62.506 9.857 A 85.605 85.605 0 0 1 60.769 12.457 A 41.676 41.676 0 0 1 58.806 15.057 C 56.006 18.257 53.706 21.857 51.706 25.457 A 89.902 89.902 0 0 1 49.128 30.153 A 301.778 301.778 0 0 0 47.806 32.457 C 44.106 38.757 41.806 45.357 39.906 52.157 L 39.906 52.657 A 0.768 0.768 0 0 0 39.899 52.766 C 39.899 53.373 40.592 54.019 41.286 54.138 A 1.308 1.308 0 0 0 41.506 54.157 C 43.406 53.957 45.406 53.757 47.406 53.657 A 0.1 0.1 0 0 1 47.421 53.658 C 47.521 53.673 47.751 53.824 47.798 53.925 A 0.078 0.078 0 0 1 47.806 53.957 A 0.339 0.339 0 0 1 47.796 54.038 C 47.758 54.193 47.623 54.339 47.533 54.43 A 6.21 6.21 0 0 1 47.506 54.457 C 45.206 55.057 42.906 55.757 40.606 56.357 C 38.706 56.857 37.606 57.957 37.406 59.557 C 36.698 64.872 35.44 70.108 35.44 75.405 A 30.829 30.829 0 0 0 35.506 77.457 C 35.606 78.357 35.306 79.257 35.106 80.157 C 34.93 80.684 33.905 81.134 33.184 81.236 A 2.02 2.02 0 0 1 32.906 81.257 C 30.906 81.057 26.806 79.857 25.606 77.957 C 25.169 77.394 24.731 76.793 24.318 76.201 A 59.279 59.279 0 0 1 23.606 75.157 A 3.93 3.93 0 0 1 23.596 75.143 C 23.125 74.509 22.904 73.813 22.934 73.054 A 3.799 3.799 0 0 1 23.006 72.457 C 23.406 70.357 23.906 68.157 24.206 66.057 C 24.406 64.557 24.406 63.157 24.406 61.657 A 1.225 1.225 0 0 0 24.292 61.153 C 23.931 60.352 22.769 59.691 21.606 59.857 A 36.718 36.718 0 0 0 21.211 59.897 A 84.895 84.895 0 0 0 15.106 60.857 A 154.228 154.228 0 0 0 13.53 61.244 A 45.117 45.117 0 0 1 8.706 62.257 A 8.521 8.521 0 0 1 8.378 62.304 C 4.842 62.737 2.203 60.762 2.106 57.657 L 2.106 56.557 A 4.63 4.63 0 0 1 4.803 52.621 A 6.437 6.437 0 0 1 6.906 52.057 C 10.206 51.557 13.506 51.157 16.806 50.957 A 16.86 16.86 0 0 0 17.612 50.873 Z M 55.806 49.557 A 1.852 1.852 0 0 0 55.32 48.781 C 54.99 48.45 54.552 48.192 54.144 48.068 A 2.265 2.265 0 0 0 54.106 48.057 A 7.563 7.563 0 0 0 52.86 47.955 A 10.986 10.986 0 0 0 49.006 48.757 A 0.42 0.42 0 0 0 48.683 48.938 A 0.378 0.378 0 0 0 48.606 49.157 A 0.235 0.235 0 0 0 48.612 49.204 C 48.631 49.295 48.696 49.424 48.768 49.514 A 0.535 0.535 0 0 0 48.806 49.557 A 17.866 17.866 0 0 0 53.947 50.409 A 12.799 12.799 0 0 0 55.106 50.357 C 55.406 50.357 55.506 49.857 55.806 49.557 Z M 39.185 43.668 A 3.726 3.726 0 0 0 38.106 46.357 C 38.906 45.457 39.206 44.457 39.406 43.457 A 4.35 4.35 0 0 0 39.185 43.668 Z M 42.006 37.016 A 12.414 12.414 0 0 0 42.006 36.857 A 1.911 1.911 0 0 1 41.974 36.888 C 41.824 37.032 41.629 37.176 41.503 37.319 A 0.663 0.663 0 0 0 41.406 37.457 C 41.125 37.831 41.283 38.118 41.632 38.071 A 0.678 0.678 0 0 0 41.706 38.057 A 0.087 0.087 0 0 0 41.744 38.048 C 41.83 38.006 41.906 37.832 41.906 37.657 C 41.987 37.413 42.003 37.235 42.006 37.016 Z M 39.606 43.157 C 39.706 42.957 39.806 42.757 39.906 42.557 L 39.906 42.957 C 39.807 43.056 39.709 43.057 39.61 43.153 A 0.421 0.421 0 0 0 39.606 43.157 Z M 42.206 36.557 L 42.506 36.057 A 0.486 0.486 0 0 1 42.48 36.249 C 42.469 36.276 42.453 36.303 42.431 36.33 A 0.389 0.389 0 0 1 42.406 36.357 A 0.113 0.113 0 0 1 42.401 36.392 C 42.391 36.424 42.366 36.443 42.333 36.464 A 0.686 0.686 0 0 1 42.332 36.464 C 42.303 36.483 42.273 36.5 42.242 36.525 A 0.434 0.434 0 0 0 42.206 36.557 Z" vector-effect="non-scaling-stroke" />
    </g>
</svg>
